PathFileType	3	(X/Y/Z)	walking_3__view1_aligned.trc
DataRate	CameraRate	NumFrames	NumMarkers	Units	OrigDataRate	OrigDataStartFrame	OrigNumFrames
100.0	100.0	18	19	mm	100.0	5780	6348
Frame#	Time	pelvis			neck			head			hip_left			hip_right			knee_left			knee_right			ankle_left			ankle_right			heel_left			heel_right			toe_left			toe_right			shoulder_left			shoulder_right			elbow_left			elbow_right			wrist_left			wrist_right			
		X1	Y1	Z1	X2	Y2	Z2	X3	Y3	Z3	X4	Y4	Z4	X5	Y5	Z5	X6	Y6	Z6	X7	Y7	Z7	X8	Y8	Z8	X9	Y9	Z9	X10	Y10	Z10	X11	Y11	Z11	X12	Y12	Z12	X13	Y13	Z13	X14	Y14	Z14	X15	Y15	Z15	X16	Y16	Z16	X17	Y17	Z17	X18	Y18	Z18	X19	Y19	Z19	
5780	57.79000	-22.877000	931.738333	179.837880	-68.341825	1482.136693	309.458444	-65.536883	1538.314862	469.888216	56.052432	936.673100	184.884512	-101.806366	926.803576	174.791179	64.469241	521.669971	348.065443	-164.156583	498.653199	230.072334	90.421665	91.534765	356.037885	-191.435429	201.923360	-57.408167	95.662808	35.542032	329.040193	-186.921157	189.775191	-111.452429	68.508674	68.437632	555.938628	-206.447754	42.373334	22.871190	117.705464	1459.089031	259.865665	-244.631060	1417.327556	274.253558	175.266333	1183.672233	152.647560	-286.944945	1123.361646	273.785893	206.615400	922.965213	143.479785	-252.982911	925.646713	442.595781
5781	57.80000	-20.453453	931.964719	178.868202	-66.291856	1482.292537	309.443336	-64.055864	1538.868999	469.824833	58.453301	937.109839	183.870455	-99.360212	926.819599	173.865943	66.250219	520.201323	339.297388	-160.902341	500.143205	236.387406	91.030444	90.917930	343.638691	-187.797981	203.941968	-47.853652	96.090167	35.124487	316.340025	-183.345392	191.736993	-101.511780	69.807545	67.084575	543.267562	-202.154202	45.378167	32.294185	119.874325	1458.932530	261.228666	-242.305383	1417.578237	272.646282	178.095827	1183.346457	156.115877	-283.892305	1123.636656	269.174230	208.588526	923.180986	149.785839	-252.836969	923.311879	432.818499
5782	57.81000	-18.029906	932.191105	177.898523	-64.241886	1482.448380	309.428228	-62.574844	1539.423136	469.761450	60.854169	937.546577	182.856397	-96.914059	926.835621	172.940707	68.031197	518.732675	330.529334	-157.648098	501.633211	242.702478	91.639223	90.301096	331.239496	-184.160533	205.960576	-38.299137	96.517527	34.706942	303.639856	-179.769628	193.698794	-91.571131	71.106416	65.731517	530.596495	-197.860651	48.383000	41.717180	122.043185	1458.776029	262.591668	-239.979705	1417.828919	271.039006	180.925322	1183.020681	159.584193	-280.839664	1123.911665	264.562567	210.561652	923.396759	156.091893	-252.691027	920.977045	423.041218
5783	57.82000	-15.606359	932.417491	176.928845	-62.191917	1482.604224	309.413120	-61.093824	1539.977274	469.698067	63.255038	937.983315	181.842340	-94.467905	926.851643	172.015471	69.812176	517.264027	321.761279	-154.393855	503.123217	249.017550	92.248002	89.684261	318.840302	-180.523085	207.979183	-28.744621	96.944886	34.289398	290.939688	-176.193863	195.660595	-81.630482	72.405287	64.378460	517.925429	-193.567100	51.387833	51.140175	124.212046	1458.619527	263.954669	-237.654027	1418.079600	269.431731	183.754817	1182.694906	163.052509	-277.787024	1124.186674	259.950905	212.534778	923.612532	162.397947	-252.545084	918.642211	413.263936
5784	57.83000	-13.182813	932.643876	175.959167	-60.141948	1482.760068	309.398013	-59.612805	1540.531411	469.634684	65.655907	938.420053	180.828282	-92.021752	926.867665	171.090235	71.593154	515.795379	312.993225	-151.139612	504.613223	255.332623	92.856782	89.067426	306.441107	-176.885637	209.997791	-19.190106	97.372246	33.871853	278.239519	-172.618098	197.622397	-71.689832	73.704158	63.025403	505.254363	-189.273548	54.392666	60.563170	126.380907	1458.463026	265.317670	-235.328350	1418.330281	267.824455	186.584311	1182.369130	166.520825	-274.734384	1124.461683	255.339242	214.507904	923.828305	168.704001	-252.399142	916.307376	403.486654
5785	57.84000	-10.759266	932.870262	174.989489	-58.091978	1482.915911	309.382905	-58.131785	1541.085548	469.571301	68.056775	938.856791	179.814225	-89.575598	926.883687	170.164999	73.374132	514.326731	304.225170	-147.885370	506.103229	261.647695	93.465561	88.450591	294.041913	-173.248189	212.016399	-9.635590	97.799605	33.454308	265.539350	-169.042334	199.584198	-61.749183	75.003029	61.672345	492.583297	-184.979997	57.397499	69.986165	128.549767	1458.306525	266.680672	-233.002672	1418.580962	266.217179	189.413806	1182.043354	169.989141	-271.681744	1124.736692	250.727579	216.481030	924.044079	175.010055	-252.253199	913.972542	393.709373
5786	57.85000	-8.335719	933.096648	174.019810	-56.042009	1483.071755	309.367797	-56.650765	1541.639685	469.507918	70.457644	939.293529	178.800167	-87.129445	926.899709	169.239764	75.155110	512.858083	295.457116	-144.631127	507.593235	267.962767	94.074340	87.833756	281.642718	-169.610741	214.035007	-0.081075	98.226964	33.036763	252.839182	-165.466569	201.545999	-51.808534	76.301900	60.319288	479.912231	-180.686445	60.402332	79.409160	130.718628	1458.150024	268.043673	-230.676994	1418.831644	264.609903	192.243300	1181.717578	173.457458	-268.629104	1125.011701	246.115916	218.454156	924.259852	181.316109	-252.107257	911.637708	383.932091
5787	57.86000	-5.024101	933.104258	171.868638	-53.179677	1482.703964	307.905314	-54.369377	1541.834585	467.887978	73.677758	939.377840	176.570224	-83.726286	926.830624	167.167332	76.869106	511.684076	285.235019	-140.402365	509.344355	274.073224	94.462725	88.146916	263.479299	-164.913219	214.082343	14.543689	98.358208	33.953028	233.793662	-160.871449	200.772296	-36.319915	77.595616	57.522158	460.829497	-175.564201	63.647545	96.004537	133.691423	1457.663600	268.251033	-227.403955	1418.255739	261.414666	196.469680	1181.182638	176.836611	-264.881709	1124.763241	239.448338	220.662427	925.196745	190.168168	-251.859039	909.266739	371.900833
5788	57.87000	-1.712483	933.111868	169.717465	-50.317346	1482.336172	306.442831	-52.087988	1542.029484	466.268038	76.897872	939.462151	174.340280	-80.323127	926.761539	165.094900	78.583103	510.510068	275.012922	-136.173604	511.095475	280.183680	94.851111	88.460076	245.315880	-160.215698	214.129679	29.168452	98.489452	34.869292	214.748141	-156.276329	199.998592	-20.831297	78.889333	54.725029	441.746764	-170.441957	66.892759	112.599914	136.664218	1457.177176	268.458393	-224.130917	1417.679833	258.219429	200.696061	1180.647698	180.215764	-261.134315	1124.514781	232.780759	222.870697	926.133637	199.020226	-251.610822	906.895771	359.869575
5789	57.88000	1.599135	933.119478	167.566292	-47.455014	1481.968381	304.980348	-49.806599	1542.224384	464.648098	80.117986	939.546462	172.110337	-76.919968	926.692453	163.022468	80.297099	509.336060	264.790825	-131.944843	512.846595	286.294137	95.239497	88.773237	227.152461	-155.518177	214.177015	43.793216	98.620696	35.785557	195.702621	-151.681210	199.224888	-5.342678	80.183049	51.927899	422.664031	-165.319713	70.137973	129.195291	139.637013	1456.690752	268.665753	-220.857878	1417.103928	255.024191	204.922441	1180.112758	183.594917	-257.386920	1124.266320	226.113181	225.078968	927.070530	207.872285	-251.362604	904.524803	347.838317
5790	57.89000	4.910752	933.127088	165.415119	-44.592683	1481.600590	303.517866	-47.525211	1542.419283	463.028158	83.338100	939.630773	169.880393	-73.516809	926.623368	160.950036	82.011095	508.162052	254.568729	-127.716081	514.597715	292.404593	95.627882	89.086397	208.989042	-150.820655	214.224351	58.417980	98.751940	36.701821	176.657101	-147.086090	198.451185	10.145941	81.476765	49.130769	403.581298	-160.197468	73.383186	145.790668	142.609809	1456.204328	268.873114	-217.584839	1416.528023	251.828954	209.148821	1179.577817	186.974070	-253.639526	1124.017860	219.445603	227.287238	928.007423	216.724343	-251.114387	902.153835	335.807059
5791	57.90000	8.222370	933.134698	163.263947	-41.730351	1481.232798	302.055383	-45.243822	1542.614183	461.408218	86.558214	939.715084	167.650450	-70.113650	926.554283	158.877604	83.725091	506.988045	244.346632	-123.487320	516.348835	298.515050	96.016268	89.399557	190.825623	-146.123134	214.271688	73.042743	98.883184	37.618086	157.611581	-142.490970	197.677481	25.634559	82.770482	46.333640	384.498565	-155.075224	76.628400	162.386045	145.582604	1455.717904	269.080474	-214.311801	1415.952118	248.633717	213.375202	1179.042877	190.353223	-249.892132	1123.769400	212.778024	229.495508	928.944316	225.576402	-250.866169	899.782866	323.775800
5792	57.91000	11.533988	933.142308	161.112774	-38.868020	1480.865007	300.592900	-42.962433	1542.809082	459.788278	89.778328	939.799395	165.420506	-66.710491	926.485197	156.805172	85.439088	505.814037	234.124535	-119.258558	518.099955	304.625507	96.404653	89.712717	172.662204	-141.425612	214.319024	87.667507	99.014428	38.534350	138.566061	-137.895851	196.903778	41.123178	84.064198	43.536510	365.415832	-149.952980	79.873613	178.981422	148.555399	1455.231480	269.287834	-211.038762	1415.376213	245.438479	217.601582	1178.507937	193.732376	-246.144737	1123.520940	206.110446	231.703779	929.881208	234.428460	-250.617952	897.411898	311.744542
5793	57.92000	14.845606	933.149918	158.961601	-36.005688	1480.497216	299.130417	-40.681045	1543.003982	458.168338	92.998442	939.883706	163.190563	-63.307332	926.416112	154.732741	87.153084	504.640029	223.902439	-115.029797	519.851075	310.735963	96.793039	90.025877	154.498785	-136.728091	214.366360	102.292271	99.145672	39.450615	119.520541	-133.300731	196.130074	56.611796	85.357914	40.739381	346.333099	-144.830736	83.118827	195.576798	151.528194	1454.745056	269.495194	-207.765723	1414.800308	242.243242	221.827962	1177.972997	197.111529	-242.397343	1123.272479	199.442868	233.912049	930.818101	243.280519	-250.369735	895.040930	299.713284
5794	57.93000	18.157224	933.157528	156.810428	-33.143357	1480.129425	297.667934	-38.399656	1543.198881	456.548398	96.218556	939.968017	160.960619	-59.904173	926.347027	152.660309	88.867080	503.466022	213.680342	-110.801036	521.602195	316.846420	97.181424	90.339037	136.335366	-132.030570	214.413696	116.917034	99.276916	40.366879	100.475021	-128.705611	195.356371	72.100415	86.651631	37.942251	327.250366	-139.708491	86.364040	212.172175	154.500989	1454.258632	269.702554	-204.492684	1414.224403	239.048004	226.054343	1177.438057	200.490682	-238.649948	1123.024019	192.775289	236.120319	931.754994	252.132577	-250.121517	892.669962	287.682026
5795	57.94000	21.468842	933.165138	154.659256	-30.281025	1479.761633	296.205451	-36.118268	1543.393781	454.928458	99.438670	940.052328	158.730676	-56.501014	926.277941	150.587877	90.581076	502.292014	203.458245	-106.572274	523.353315	322.956876	97.569810	90.652197	118.171947	-127.333048	214.461032	131.541798	99.408160	41.283144	81.429501	-124.110492	194.582667	87.589033	87.945347	35.145122	308.167632	-134.586247	89.609254	228.767552	157.473785	1453.772208	269.909914	-201.219646	1413.648498	235.852767	230.280723	1176.903116	203.869835	-234.902554	1122.775559	186.107711	238.328590	932.691887	260.984635	-249.873300	890.298993	275.650768
5796	57.95000	24.780459	933.172748	152.508083	-27.418694	1479.393842	294.742969	-33.836879	1543.588680	453.308518	102.658784	940.136639	156.500732	-53.097856	926.208856	148.515445	92.295073	501.118006	193.236149	-102.343513	525.104435	329.067333	97.958195	90.965357	100.008528	-122.635527	214.508368	146.166561	99.539404	42.199408	62.383980	-119.515372	193.808964	103.077652	89.239063	32.347992	289.084899	-129.464003	92.854468	245.362929	160.446580	1453.285784	270.117274	-197.946607	1413.072593	232.657530	234.507103	1176.368176	207.248989	-231.155159	1122.527098	179.440133	240.536860	933.628779	269.836694	-249.625082	887.928025	263.619510
5797	57.96000	25.828629	932.938897	151.505035	-26.724902	1478.889325	294.348409	-33.393021	1543.368917	452.749660	103.695145	939.873048	155.165044	-52.037879	926.004746	147.845035	93.652056	499.688808	185.520673	-100.316363	526.423655	334.954732	96.813276	92.739926	84.948496	-120.577180	212.131078	162.215080	97.873825	45.033470	46.666397	-117.776815	190.021525	120.111249	88.645618	30.558329	271.174350	-126.014009	95.169065	265.243965	161.014074	1452.926833	270.697413	-196.769523	1412.518950	231.250819	236.700875	1175.874302	211.338232	-229.307921	1122.487765	174.899026	242.485574	934.266695	279.171847	-249.711420	886.107476	252.961106
